<svg width="22" height="20" viewBox="0 0 22 20" fill="none" xmlns="http://www.w3.org/2000/svg">
<path d="M0.495734 8.82337C-0.165245 9.47416 -0.165245 10.531 0.495734 11.1818L8.95625 19.5119C9.61723 20.1627 10.6907 20.1627 11.3516 19.5119C12.0126 18.8611 12.0126 17.8042 11.3516 17.1535L4.08617 10L11.3464 2.84654C12.0073 2.19576 12.0073 1.13888 11.3464 0.488091C10.6854 -0.162697 9.61195 -0.162697 8.95097 0.488091L0.490446 8.81817L0.495734 8.82337ZM19.1089 0.493297L10.6484 8.82337C9.98738 9.47416 9.98738 10.531 10.6484 11.1818L19.1089 19.5119C19.7699 20.1627 20.8433 20.1627 21.5043 19.5119C22.1652 18.8611 22.1652 17.8042 21.5043 17.1535L14.2388 10L21.499 2.84654C22.16 2.19576 22.16 1.13888 21.499 0.488091C20.838 -0.162697 19.7646 -0.162697 19.1036 0.488091L19.1089 0.493297Z" fill="black"/>
</svg>
