<svg width="22" height="20" viewBox="0 0 22 20" fill="none" xmlns="http://www.w3.org/2000/svg">
<path d="M21.5043 11.1766C22.1652 10.5258 22.1652 9.46896 21.5043 8.81817L13.0437 0.488091C12.3828 -0.162697 11.3093 -0.162697 10.6484 0.488091C9.98738 1.13888 9.98738 2.19576 10.6484 2.84654L17.9138 10L10.6536 17.1535C9.99267 17.8042 9.99267 18.8611 10.6536 19.5119C11.3146 20.1627 12.3881 20.1627 13.049 19.5119L21.5096 11.1818L21.5043 11.1766ZM2.89112 19.5067L11.3516 11.1766C12.0126 10.5258 12.0126 9.46896 11.3516 8.81817L2.89112 0.488091C2.23014 -0.162697 1.15671 -0.162697 0.495734 0.488091C-0.165245 1.13888 -0.165245 2.19576 0.495734 2.84654L7.76121 10L0.501021 17.1535C-0.159957 17.8042 -0.159957 18.8611 0.501021 19.5119C1.162 20.1627 2.23543 20.1627 2.89641 19.5119L2.89112 19.5067Z" fill="black"/>
</svg>
