<svg width="21" height="24" viewBox="0 0 21 24" fill="none" xmlns="http://www.w3.org/2000/svg">
<path d="M3.375 4.66667L4.32607 19.3491C4.40931 20.635 4.45099 21.278 4.72079 21.7656C4.95841 22.1948 5.3168 22.5398 5.74869 22.7553C6.23925 23 6.86542 23 8.11764 23H12.8824C14.1346 23 14.7607 23 15.2513 22.7553C15.6832 22.5398 16.0416 22.1948 16.2792 21.7656C16.549 21.278 16.5907 20.635 16.674 19.3491L17.625 4.66667M20 4.66667H1M5.75 4.66667L6.07134 3.67431C6.38282 2.71264 6.53862 2.2318 6.82742 1.87631C7.08249 1.56238 7.41001 1.31939 7.78003 1.16962C8.1991 1 8.69144 1 9.67635 1H11.3236C12.3086 1 12.8009 1 13.22 1.16962C13.59 1.31939 13.9175 1.56238 14.1726 1.87631C14.4614 2.2318 14.6172 2.71264 14.9286 3.67431L15.25 4.66667" stroke="#951763" stroke-width="2" stroke-linecap="round" stroke-linejoin="round"/>
</svg>
