<svg width="27" height="27" viewBox="0 0 27 27" fill="none" xmlns="http://www.w3.org/2000/svg">
<path fill-rule="evenodd" clip-rule="evenodd" d="M13.4921 5.73402C12.4185 4.79118 11.0062 4.21875 9.45895 4.21875C6.09887 4.21875 3.375 6.91841 3.375 10.2486C3.375 11.7821 3.94469 13.1897 4.89599 14.2537L13.5 22.7812L21.8493 14.5062L22.0961 14.246C23.0474 13.1819 23.625 11.7821 23.625 10.2486C23.625 6.91841 20.9011 4.21875 17.541 4.21875C15.9938 4.21875 14.5815 4.79118 13.5079 5.73404L13.5 5.72623L13.4921 5.73402ZM13.5 7.9868L13.5618 8.04099L14.5214 7.08984L14.6214 7.00199C15.3977 6.32032 16.4173 5.90625 17.541 5.90625C19.9834 5.90625 21.9375 7.86457 21.9375 10.2486C21.9375 11.3415 21.5308 12.3383 20.8533 13.1041L20.6428 13.326L13.5 20.4054L6.12308 13.094C5.46067 12.3365 5.0625 11.341 5.0625 10.2486C5.0625 7.86457 7.01661 5.90625 9.45895 5.90625C10.5826 5.90625 11.6023 6.32032 12.3786 7.00198L12.4786 7.08978L13.4383 8.04096L13.5 7.9868Z" fill="#707070"/>
</svg>
