<svg width="68" height="67" viewBox="0 0 68 67" fill="none" xmlns="http://www.w3.org/2000/svg">
<path d="M58.1111 24.9181V47.2834C58.1111 53.1345 58.1111 56.0603 56.9848 58.2951C55.9942 60.2611 54.4135 61.8596 52.4691 62.8612C50.2585 64 47.3651 64 41.5778 64H26.4222C20.635 64 17.7414 64 15.531 62.8612C13.5866 61.8596 12.0058 60.2611 11.0152 58.2951C9.88889 56.0603 9.88889 53.1345 9.88889 47.2834V24.9158M65 32.6563L46.2856 11.6349C42.0293 6.8541 39.9014 4.46369 37.3948 3.58119C35.1938 2.8061 32.7979 2.80627 30.5965 3.58171C28.0904 4.46456 25.9628 6.85531 21.7073 11.6368L3 32.6563M40.8889 32.6563C40.8889 36.5029 37.8047 39.6216 34 39.6216C30.1953 39.6216 27.1111 36.5029 27.1111 32.6563C27.1111 28.8094 30.1953 25.6909 34 25.6909C37.8047 25.6909 40.8889 28.8094 40.8889 32.6563Z" stroke="#3B3B3B" stroke-width="5" stroke-linecap="round" stroke-linejoin="round"/>
</svg>
