<svg width="41" height="93" viewBox="0 0 41 93" fill="none" xmlns="http://www.w3.org/2000/svg">
<path d="M38.488 56.1801V47.6678C39.5375 47.6164 40.3757 46.7491 40.3757 45.6875C40.3757 44.593 39.4857 43.7026 38.3905 43.7026H36.8005V38.1645C37.7539 38.0201 38.488 37.1975 38.488 36.2043C38.488 35.2227 37.7713 34.4076 36.8344 34.2491L33.5428 28.4116V22.0593C33.5428 21.7619 33.3012 21.5208 33.004 21.5208H29.6567L20.7265 5.6833V0.538508C20.7265 0.241105 20.4851 0 20.1879 0C19.8905 0 19.6494 0.241105 19.6494 0.538508V5.68269L10.7188 21.5201H7.37165C7.07424 21.5201 6.83314 21.7615 6.83314 22.0587V28.411L3.5413 34.2485C2.60442 34.407 1.88763 35.2221 1.88763 36.2037C1.88763 37.1969 2.62176 38.0197 3.57537 38.1639V43.702H1.98514C0.890578 43.702 0 44.5924 0 45.6869C0 46.7489 0.838359 47.616 1.88763 47.6672V56.1795C0.838359 56.2309 0 57.098 0 58.1595C0 59.221 0.838359 60.0884 1.88763 60.1398V92.4613C1.88763 92.7587 2.12874 92.9998 2.42614 92.9998H37.9491C38.2467 92.9998 38.4879 92.7587 38.4879 92.4613V60.1404C39.5373 60.089 40.3759 59.2219 40.3759 58.1601C40.3759 57.0984 39.5373 56.2313 38.488 56.1801ZM7.8406 28.8169C7.88609 28.7364 7.90995 28.6452 7.90995 28.5524V22.5974H11.0333C11.2277 22.5974 11.407 22.4927 11.5023 22.3234L20.1877 6.92085L28.8734 22.3234C28.9691 22.4927 29.1484 22.5974 29.3424 22.5974H32.4657V28.5524C32.4657 28.6452 32.4896 28.7364 32.5355 28.8169L35.5813 34.2187H4.79476L7.8406 28.8169ZM2.96465 36.2037C2.96465 35.7029 3.372 35.2956 3.87277 35.2956H36.5031C37.0035 35.2956 37.4106 35.7029 37.4106 36.2037C37.4106 36.7044 37.0035 37.1118 36.5031 37.1118H3.87298C3.372 37.1118 2.96465 36.7044 2.96465 36.2037ZM35.7231 38.1888V43.7022H4.65239V38.1888H35.7231ZM1.07702 45.6871C1.07702 45.1866 1.48436 44.7792 1.98514 44.7792H38.3903C38.8915 44.7792 39.2987 45.1866 39.2987 45.6871C39.2987 46.1881 38.8915 46.5955 38.3903 46.5955H1.98514C1.48436 46.5955 1.07702 46.1881 1.07702 45.6871ZM37.4106 47.6723V56.1752H2.96465V47.6723H37.4106ZM37.4106 91.9234H2.96465V60.1455H37.4106V91.9234ZM38.3903 59.0683H1.98514C1.48436 59.0683 1.07702 58.6609 1.07702 58.1601C1.07702 57.6596 1.48436 57.2522 1.98514 57.2522H38.3903C38.8911 57.2522 39.2987 57.6596 39.2987 58.1601C39.2987 58.6609 38.8915 59.0683 38.3903 59.0683Z" fill="black"/>
<path d="M6.82049 70.9795H10.8389C11.1363 70.9795 11.3774 70.7384 11.3774 70.4408V63.6896C11.3774 63.3924 11.1363 63.1511 10.8389 63.1511H6.82049C6.52309 63.1511 6.28199 63.3924 6.28199 63.6896V70.4408C6.28199 70.7384 6.52309 70.9795 6.82049 70.9795ZM7.3588 64.2284H10.3002V69.9021H7.3588V64.2284Z" fill="black"/>
<path d="M18.1785 70.9795H22.1969C22.4941 70.9795 22.7357 70.7384 22.7357 70.4408V63.6896C22.7357 63.3924 22.4941 63.1511 22.1969 63.1511H18.1785C17.8811 63.1511 17.64 63.3924 17.64 63.6896V70.4408C17.64 70.7384 17.8811 70.9795 18.1785 70.9795ZM18.717 64.2284H21.6582V69.9021H18.717V64.2284Z" fill="black"/>
<path d="M29.5364 70.9795H33.5546C33.8522 70.9795 34.0933 70.7384 34.0933 70.4408V63.6896C34.0933 63.3924 33.8522 63.1511 33.5546 63.1511H29.5364C29.2388 63.1511 28.9981 63.3924 28.9981 63.6896V70.4408C28.9981 70.7384 29.2388 70.9795 29.5364 70.9795ZM30.0751 64.2284H33.0165V69.9021H30.0751V64.2284Z" fill="black"/>
<path d="M5.21618 54.9309H8.5994C8.89681 54.9309 9.13792 54.6898 9.13792 54.3922V51.1465C9.13792 49.9169 8.13759 48.9161 6.90779 48.9161C5.678 48.9161 4.67768 49.9165 4.67768 51.1465V54.3922C4.67768 54.6898 4.91878 54.9309 5.21618 54.9309ZM5.7549 51.1465C5.7549 50.5109 6.27219 49.9936 6.908 49.9936C7.54381 49.9936 8.0611 50.5109 8.0611 51.1465V53.8537H5.7549V51.1465Z" fill="black"/>
<path d="M11.8562 54.9309H15.2394C15.5368 54.9309 15.7779 54.6898 15.7779 54.3922V51.1465C15.7779 49.9169 14.7776 48.9161 13.5478 48.9161C12.318 48.9161 11.3177 49.9165 11.3177 51.1465V54.3922C11.3179 54.6898 11.5588 54.9309 11.8562 54.9309ZM12.3947 51.1465C12.3947 50.5109 12.912 49.9936 13.5478 49.9936C14.1836 49.9936 14.7009 50.5109 14.7009 51.1465V53.8537H12.3947V51.1465Z" fill="black"/>
<path d="M18.4961 54.9309H21.8794C22.177 54.9309 22.4177 54.6898 22.4177 54.3922V51.1465C22.4177 49.9169 21.4173 48.9161 20.1877 48.9161C18.9581 48.9161 17.9576 49.9165 17.9576 51.1465V54.3922C17.9576 54.6898 18.1987 54.9309 18.4961 54.9309ZM19.0348 51.1465C19.0348 50.5109 19.5521 49.9936 20.1879 49.9936C20.8244 49.9936 21.341 50.5109 21.341 51.1465V53.8537H19.0348V51.1465Z" fill="black"/>
<path d="M25.1361 54.9309H28.5193C28.8169 54.9309 29.058 54.6898 29.058 54.3922V51.1465C29.058 49.9169 28.0577 48.9161 26.8277 48.9161C25.5983 48.9161 24.5974 49.9165 24.5974 51.1465V54.3922C24.5974 54.6898 24.8389 54.9309 25.1361 54.9309ZM25.6746 51.1465C25.6746 50.5109 26.1917 49.9936 26.8275 49.9936C27.4633 49.9936 27.9808 50.5109 27.9808 51.1465V53.8537H25.6742L25.6746 51.1465Z" fill="black"/>
<path d="M31.7757 54.9309H35.1593C35.4569 54.9309 35.6976 54.6898 35.6976 54.3922V51.1465C35.6976 49.9169 34.6977 48.9161 33.4673 48.9161C32.2383 48.9161 31.2374 49.9165 31.2374 51.1465V54.3922C31.2376 54.6898 31.4785 54.9309 31.7757 54.9309ZM32.3144 51.1465C32.3144 50.5109 32.8319 49.9936 33.4673 49.9936C34.1031 49.9936 34.6202 50.5109 34.6202 51.1465V53.8537H32.3142L32.3144 51.1465Z" fill="black"/>
<path d="M8.01949 43.1716H10.2814C10.5788 43.1716 10.8199 42.9305 10.8199 42.6331V39.5255C10.8199 39.2281 10.5788 38.987 10.2814 38.987H8.01949C7.72209 38.987 7.48098 39.2281 7.48098 39.5255V42.6331C7.48078 42.9305 7.72209 43.1716 8.01949 43.1716ZM8.558 40.064H9.74292V42.0946H8.558V40.064Z" fill="black"/>
<path d="M13.538 43.1716H15.7999C16.0973 43.1716 16.3384 42.9305 16.3384 42.6331V39.5255C16.3384 39.2281 16.0973 38.987 15.7999 38.987H13.538C13.2406 38.987 12.9995 39.2281 12.9995 39.5255V42.6331C12.9995 42.9305 13.2408 43.1716 13.538 43.1716ZM14.0765 40.064H15.2614V42.0946H14.0765V40.064Z" fill="black"/>
<path d="M19.0567 43.1716H21.3188C21.616 43.1716 21.8571 42.9305 21.8571 42.6331V39.5255C21.8571 39.2281 21.616 38.987 21.3188 38.987H19.0567C18.7593 38.987 18.5182 39.2281 18.5182 39.5255V42.6331C18.5182 42.9305 18.7593 43.1716 19.0567 43.1716ZM19.5954 40.064H20.7805V42.0946H19.5954V40.064Z" fill="black"/>
<path d="M24.5756 43.1716H26.8373C27.1349 43.1716 27.376 42.9305 27.376 42.6331V39.5255C27.376 39.2281 27.1349 38.987 26.8373 38.987H24.5756C24.278 38.987 24.0369 39.2281 24.0369 39.5255V42.6331C24.0369 42.9305 24.278 43.1716 24.5756 43.1716ZM25.1141 40.064H26.299V42.0946H25.1141V40.064Z" fill="black"/>
<path d="M30.0945 43.1716H32.3562C32.6538 43.1716 32.8949 42.9305 32.8949 42.6331V39.5255C32.8949 39.2281 32.6538 38.987 32.3562 38.987H30.0945C29.7969 38.987 29.5558 39.2281 29.5558 39.5255V42.6331C29.556 42.9305 29.7969 43.1716 30.0945 43.1716ZM30.6328 40.064H31.8177V42.0946H30.6328V40.064Z" fill="black"/>
</svg>
