<svg width="23" height="13" viewBox="0 0 23 13" fill="none" xmlns="http://www.w3.org/2000/svg">
<path d="M19.7217 4.86716L17.0179 2.83545C16.6092 2.52835 16.4037 2.3747 16.1533 2.26431C15.9313 2.1665 15.6834 2.09399 15.4213 2.04983C15.1256 2 14.8073 2 14.1689 2H5.70836C4.41039 2 3.76092 2 3.26517 2.15818C2.82908 2.2973 2.47479 2.51915 2.2526 2.79222C2 3.10265 2 3.50934 2 4.3221V8.38553C2 9.19828 2 9.60448 2.2526 9.9149C2.47479 10.1879 2.82908 10.4102 3.26517 10.5493C3.76043 10.7073 4.40911 10.7073 5.70454 10.7073H14.1689C14.8073 10.7073 15.1256 10.7072 15.4213 10.6574C15.6834 10.6132 15.9313 10.5406 16.1533 10.4428C16.4037 10.3324 16.6092 10.1792 17.0179 9.87201L19.7217 7.8403C20.4254 7.31148 20.7766 7.04706 20.9111 6.75188C21.0296 6.49168 21.0296 6.21544 20.9111 5.95524C20.7766 5.66006 20.4254 5.39593 19.7217 4.86716Z" stroke="#F18506" stroke-width="3" stroke-linecap="round" stroke-linejoin="round"/>
</svg>
