<svg width="40" height="93" viewBox="0 0 40 93" fill="none" xmlns="http://www.w3.org/2000/svg">
<path d="M34 72V43H4V72M34 72H4M34 72V92M4 72V92H34M34 92H6M15 74V90M10 74V90M19 74V90M24 74V90M28 74V90M25 24H13M25 24L31 33H7L13 24M25 24V13M13 24V13M13 13H25M13 13V8.9995L18.595 1L25 8.9995V13M19 56V59.3338L21 61M10 37V39M15 37V39M19 37V39M19 18V19M24 37V39M28 37V39M34 53H39M1 53H4M34 69H39M1 69H4M27 58C27 62.4183 23.6421 66 19.5 66C15.3579 66 12 62.4183 12 58C12 53.5817 15.3579 50 19.5 50C23.6421 50 27 53.5817 27 58ZM6 33H33V43H6V33Z" stroke="black" stroke-linecap="round" stroke-linejoin="round"/>
</svg>
