<svg width="30" height="30" viewBox="0 0 30 30" fill="none" xmlns="http://www.w3.org/2000/svg">
<g clip-path="url(#clip0_29_3956)">
<path fill-rule="evenodd" clip-rule="evenodd" d="M6.36451 21.2043L8.4855 23.2243L2.1225 29.2857L0 27.2657L6.36451 21.2043ZM18 20.7143C13.038 20.7143 9 16.8686 9 12.1429C9 7.41572 13.038 3.57144 18 3.57144C22.9635 3.57144 27 7.41572 27 12.1429C27 16.8686 22.9635 20.7143 18 20.7143ZM18 0.714294C11.373 0.714294 6 5.83144 6 12.1429C6 18.4543 11.373 23.5714 18 23.5714C24.6285 23.5714 30 18.4543 30 12.1429C30 5.83144 24.6285 0.714294 18 0.714294Z" fill="white"/>
</g>
<defs>
<clipPath id="clip0_29_3956">
<rect width="30" height="30" fill="white"/>
</clipPath>
</defs>
</svg>
