<svg width="66" height="89" viewBox="0 0 66 89" fill="none" xmlns="http://www.w3.org/2000/svg">
<path d="M5.78891 81.8078H17.4837M46.7205 81.8078L59.3293 81.8281M18.6403 80.375L27.2298 60.6532M47.7522 81.8281L36.7187 60.2303M24.7318 33.8837H39.2689M32.0469 6.26562V1.90625M26.2344 46.9531H30.5938M27.6875 41.1406H36.4062M39.7005 64.9443L49.4844 67.2969L45.6975 75.3821L58.2031 80.375M25.0443 64.9443L14.8273 68.2748L19.7142 76.2699L7.49924 80.4898M17.5156 52.7656H46.5781V60.0312H17.5156V52.7656ZM17.1523 87.2788C17.2033 83.4822 18.7599 79.8612 21.4799 77.212C24.2 74.5628 27.8608 73.1022 31.6574 73.1515H32.4014C36.1981 73.1022 39.8589 74.5628 42.5789 77.212C45.299 79.8612 46.8556 83.4822 46.9065 87.2788V87.6406H64.0156L44.2008 60.0312H19.97L1.53125 87.6406H17.1523V87.2788ZM43.2098 52.7656H20.884L25.8188 25.1562H38.275L43.2098 52.7656ZM36.1985 25.1562H27.8953L29.4022 6.26562H34.6916L36.1985 25.1562Z" stroke="#444444" stroke-width="2" stroke-linecap="round" stroke-linejoin="round"/>
</svg>
