<svg width="23" height="23" viewBox="0 0 23 23" fill="none" xmlns="http://www.w3.org/2000/svg">
<path d="M1.0086 6.16219C0.913653 8.66662 1.54749 12.9198 5.81386 17.1862C6.84313 18.2154 7.87163 19.0333 8.875 19.6805M3.01838 2.23012C4.84662 0.401866 7.76353 0.647515 8.92435 2.72748L9.77616 4.25383C10.5449 5.63127 10.2363 7.43825 9.02554 8.649C9.02554 8.649 7.55709 10.1177 10.2197 12.7804C12.8814 15.4421 14.351 13.9745 14.351 13.9745C15.5618 12.7637 17.3687 12.4551 18.7462 13.2239L20.2725 14.0757C22.3525 15.2365 22.5981 18.1534 20.7699 19.9817C19.6714 21.0802 18.3255 21.9351 16.8378 21.9914C15.7694 22.0319 14.3826 21.9398 12.8125 21.4896" stroke="#444444" stroke-width="2" stroke-linecap="round"/>
</svg>
