<svg width="57" height="57" viewBox="0 0 57 57" fill="none" xmlns="http://www.w3.org/2000/svg">
<path d="M36.2164 54.508C35.5324 54.508 34.8466 54.248 34.3265 53.7278L10.0516 29.4494C9.19303 28.5908 8.55178 26.9646 8.59275 25.7515L9.1004 11.0473C9.1485 9.60806 10.3615 8.39681 11.8026 8.34694L14.9607 8.25253C15.431 8.25253 15.8638 8.62125 15.8816 9.11288C15.8977 9.6045 15.5129 10.0178 15.0231 10.0356L11.8613 10.13C11.3555 10.1478 10.8977 10.6056 10.8799 11.1097L10.3722 25.8139C10.3491 26.5406 10.7962 27.6753 11.3109 28.1901L35.5876 52.4667C35.9349 52.8141 36.4996 52.8141 36.8469 52.4667L53.2202 36.0917C53.3876 35.9242 53.4802 35.7016 53.4802 35.4611C53.4802 35.2207 53.3876 34.998 53.2202 34.8306L28.9453 10.5593C28.4305 10.0445 27.3297 9.54216 26.5656 9.62231L19.551 9.86456C19.0309 9.83428 18.6461 9.49585 18.6283 9.006C18.6123 8.51438 18.997 8.10113 19.4869 8.08331L26.5032 7.84106C27.7412 7.84463 29.3443 8.44135 30.2029 9.29991L54.4777 33.573C54.9801 34.0753 55.2579 34.7468 55.2579 35.4629C55.2579 36.179 54.9801 36.8487 54.4777 37.3528L38.1045 53.7278C37.5862 54.2462 36.9004 54.508 36.2164 54.508Z" fill="#444444"/>
<path d="M19.5937 24.0058C16.6476 24.0058 14.25 21.6082 14.25 18.662C14.25 16.765 15.2368 15.0497 16.8862 14.0718C17.3066 13.8224 17.8552 13.9613 18.1082 14.3853C18.3593 14.8092 18.2186 15.356 17.7947 15.6072C16.6903 16.2591 16.0312 17.4027 16.0312 18.662C16.0312 20.6268 17.629 22.2245 19.5937 22.2245C21.5585 22.2245 23.1562 20.6268 23.1562 18.662C23.1562 17.0215 22.0341 15.6054 20.4274 15.2189C19.9482 15.1049 19.6543 14.6222 19.7701 14.143C19.8841 13.6674 20.3508 13.3753 20.846 13.4857C23.2542 14.0646 24.9375 16.1932 24.9375 18.662C24.9375 21.6082 22.5399 24.0058 19.5937 24.0058Z" fill="#444444"/>
<path d="M28.0921 30.3954C27.6005 30.8977 27.0465 31.1969 26.4248 31.2824C26.0116 31.3483 25.5948 31.2717 25.178 31.0491C24.9535 30.9315 24.7273 30.757 24.4993 30.5325C24.0789 30.1068 23.8313 29.6526 23.7637 29.1681C23.7013 28.7637 23.753 28.3469 23.9115 27.9194C24.0718 27.4902 24.3283 27.0716 24.6881 26.6708L25.1138 27.0413C25.4843 27.3619 25.5698 27.9604 25.3027 28.3719C25.3027 28.3719 25.2225 28.4948 25.2118 28.8564C25.1993 29.1307 25.2795 29.3444 25.4558 29.503C25.6999 29.7327 26.0045 29.8022 26.3696 29.7167C26.5513 29.6793 26.7473 29.5582 26.9485 29.3516C27.246 29.0559 27.4081 28.6284 27.4313 28.0655C27.4206 27.6522 27.4028 27.027 27.3832 26.1987C27.3707 25.4952 27.4259 24.9305 27.5542 24.5101C27.7038 24.0452 27.9567 23.6266 28.3183 23.265C28.9685 22.6202 29.681 22.3406 30.4523 22.4457C30.9243 22.5116 31.3607 22.7485 31.7579 23.1475C32.1427 23.5322 32.3849 23.9455 32.4882 24.389C32.5666 24.7363 32.5523 25.0944 32.4455 25.4649C32.3368 25.8354 32.1391 26.1898 31.8541 26.5301L31.3678 26.1934C30.9635 25.9137 30.8174 25.4007 31.0418 25.0516C31.0418 25.0516 31.0418 25.0516 31.0686 24.7488C31.0882 24.5315 31.0044 24.332 30.8156 24.1467C30.6197 23.9472 30.381 23.8849 30.1085 23.9597C29.8823 24.0132 29.6649 24.1467 29.4583 24.3587C29.1288 24.6847 28.9364 25.1567 28.8812 25.7784C28.858 26.0153 28.8652 26.3252 28.9043 26.7117C28.9435 27.1713 28.9631 27.4848 28.9613 27.6469C28.9596 28.1795 28.9043 28.648 28.7886 29.0505C28.7369 29.2376 28.6781 29.405 28.6193 29.5493C28.4626 29.9091 28.2898 30.1887 28.0921 30.3954Z" fill="#444444"/>
<path d="M30.8263 33.4039C30.5164 33.0939 29.9393 33.0761 29.542 33.3647L29.0807 33.6995C28.6835 33.9863 28.1063 33.9685 27.7964 33.6621C27.4883 33.354 27.5631 32.8713 27.9638 32.5863L34.868 27.686C35.2688 27.4028 35.8779 27.4545 36.2253 27.8L36.4479 28.0209C36.7935 28.3665 36.8452 28.9775 36.5602 29.3765L31.6475 36.2663C31.3643 36.6653 30.8744 36.7384 30.5645 36.4266C30.2545 36.1149 30.2332 35.5378 30.5253 35.1424L30.8602 34.6828C31.1505 34.2891 31.1345 33.7138 30.8263 33.4039ZM34.159 30.2528C34.4547 29.861 34.3746 29.7826 33.9827 30.0765L32.1908 31.4231C31.7989 31.717 31.6582 32.1374 31.8773 32.3565C32.0981 32.5774 32.5167 32.4366 32.8124 32.0448L34.159 30.2528Z" fill="#444444"/>
<path d="M35.8156 40.6072C35.5199 40.9011 34.9944 40.8602 34.6489 40.5128L32.9745 38.8349C32.6289 38.4893 32.6289 37.9211 32.9745 37.5755L38.858 31.6903C39.2035 31.3447 39.7308 31.3038 40.0265 31.5994C40.3222 31.8969 40.283 32.4242 39.9356 32.7697L35.1227 37.5809C34.7771 37.9264 34.7771 38.4947 35.1227 38.8402L35.723 39.4405C36.0685 39.7878 36.1095 40.3133 35.8156 40.6072Z" fill="#444444"/>
<path d="M36.9556 42.8179C36.61 42.4723 36.61 41.9041 36.9556 41.5585L42.8444 35.6662C43.19 35.3206 43.7582 35.3206 44.1037 35.6662L45.9135 37.4741C46.2591 37.8197 46.3 38.3469 46.0008 38.6444C45.7033 38.9437 45.1761 38.9045 44.8305 38.5571L44.1002 37.8286C43.7546 37.483 43.1864 37.483 42.8408 37.8286L42.1515 38.5162C41.8059 38.8617 41.8059 39.4299 42.1497 39.7773L42.3457 39.9714C42.6894 40.3188 42.7304 40.846 42.4312 41.1435C42.1337 41.441 41.6064 41.4018 41.2609 41.0544L41.0667 40.8621C40.7212 40.5165 40.1529 40.5165 39.8074 40.8621L39.118 41.5514C38.7725 41.897 38.7725 42.4652 39.118 42.8107L39.8483 43.5428C40.1939 43.8884 40.2349 44.4157 39.9356 44.7131C39.6364 45.0106 39.1091 44.9714 38.7636 44.6241L36.9556 42.8179Z" fill="#444444"/>
<path d="M15.7462 20.8389C15.3633 20.8389 15.0106 20.5913 14.893 20.2083C14.7505 19.7381 15.0142 19.2411 15.4862 19.0968C16.3786 18.8261 17.1552 18.3647 17.7911 17.7288C20.4666 15.0516 19.8378 10.0712 16.3911 6.62449C14.6971 4.92874 12.5863 3.85999 10.4506 3.61952C8.39325 3.3844 6.55856 3.95618 5.28853 5.22621C2.61487 7.90165 3.24187 12.882 6.68859 16.3287C6.80259 16.4427 6.92015 16.5567 7.03772 16.6654C7.40109 16.9985 7.42425 17.5614 7.09115 17.923C6.75628 18.2881 6.19519 18.3095 5.83359 17.9764C5.69465 17.8499 5.56106 17.7181 5.42747 17.5863C1.28962 13.4485 0.659061 7.33699 4.02919 3.96687C5.68575 2.30496 8.03344 1.55149 10.6501 1.84896C13.1866 2.13574 15.6732 3.3844 17.6504 5.36515C21.7918 9.50655 22.4206 15.618 19.0505 18.9881C18.2026 19.8342 17.1784 20.4417 16.0045 20.8015C15.919 20.8264 15.8317 20.8389 15.7462 20.8389Z" fill="#444444"/>
</svg>
