<?xml version="1.0" encoding="UTF-8"?>
<svg id="katman_1" data-name="katman 1" xmlns="http://www.w3.org/2000/svg" version="1.1" viewBox="0 0 62.8 62.9">
  <defs>
    <style>
      .cls-1 {
        fill: none;
      }

      .cls-1, .cls-2 {
        stroke-width: 0px;
      }

      .cls-2 {
        fill: #444;
      }
    </style>
  </defs>
  <path class="cls-2" d="M36.6,7.9c0,.2-.1.4-.3.6-.2.2-.4.3-.6.3-.2,0-.5,0-.7,0-.2,0-.4-.2-.5-.4l-2.4-3.3c-.2-.2-.3-.6-.2-.9,0-.3.2-.6.5-.8l3.3-2.5c.2-.1.4-.2.6-.2.2,0,.5,0,.7.2.2.1.4.3.5.5s.1.4,0,.7l-.3,1.8c4,.8,7.9,2.6,11.2,5,3.3,2.5,6,5.6,8,9.3,2,3.6,3.1,7.7,3.4,11.8.2,4.1-.4,8.3-1.9,12.1l-1.4,3.2h-2.8l1.8-4.2c1.4-3.5,2-7.2,1.7-11-.2-3.7-1.3-7.4-3-10.7-1.8-3.3-4.2-6.2-7.2-8.4-3-2.3-6.4-3.8-10.1-4.6l-.2,1.5Z"/>
  <path class="cls-2" d="M3.5,42.2l1.6-.7c-1.2-3.2-1.9-6.7-1.9-10.2C3.3,17.9,12.9,6.2,26.1,3.6l.5,2.5C14.5,8.4,5.8,19.1,5.8,31.4c0,3.1.6,6.3,1.7,9.2l1.5-.6c.2,0,.4-.1.7,0,.2,0,.4.2.6.3s.3.4.3.6c0,.2,0,.5,0,.7l-1.6,3.8c-.1.3-.3.5-.6.6-.3.1-.6.1-.9,0l-3.8-1.6c-.2,0-.4-.2-.5-.4-.1-.2-.2-.4-.2-.7,0-.2,0-.5.2-.6.1-.2.3-.3.5-.4Z"/>
  <path class="cls-2" d="M19.4,20.8c2.7-.1,7.6.2,11.2,3.6.4.4.7.8,1,1.2.3-.4.7-.8,1-1.2,3.6-3.4,8.5-3.7,11.2-3.6.8,0,1.7.4,2.3,1,.6.6,1,1.4,1,2.3.1,2.7-.2,7.6-3.6,11.2-2.5,2.5-6,3.9-10.6,4v11.3h10v2.5h-22.5v-2.5h9.9v-11.3c-4.6,0-8.2-1.4-10.6-4-3.4-3.6-3.7-8.5-3.6-11.2,0-.8.4-1.7,1-2.3.6-.6,1.4-1,2.3-1ZM44.6,24.1c0-.2-.1-.4-.3-.6-.2-.2-.4-.2-.6-.3-2.2-.1-6.5.1-9.3,2.9-2,1.9-3.1,4.8-3.2,8.6,2-4.1,5.9-5.4,6.1-5.4l.7,2.3s-3.7,1.2-5,5c3.8-.1,6.7-1.2,8.6-3.2,2.8-2.9,3-7.1,2.9-9.3Z"/>
  <rect class="cls-1" x=".3" y=".2" width="62.3" height="62.3" rx="31.2" ry="31.2"/>
</svg>