<svg width="43" height="49" viewBox="0 0 43 49" fill="none" xmlns="http://www.w3.org/2000/svg">
<path d="M21.5002 25.2493C23.6884 25.2493 25.4622 23.4755 25.4622 21.2874C25.4622 19.0992 23.6884 17.3254 21.5002 17.3254C19.3121 17.3254 17.5383 19.0992 17.5383 21.2874C17.5383 23.4755 19.3121 25.2493 21.5002 25.2493ZM21.5002 25.2493L21.5002 29.3831M21.5 46.8437C31.862 43.2717 39.2472 34.9693 40.4062 24.3981C40.7275 19.8092 40.7003 15.2023 40.3244 10.6175C40.2215 9.12002 38.9973 7.94612 37.4969 7.90613C32.8091 7.76175 27.3614 6.98064 23.151 2.83318C22.2357 1.93061 20.7652 1.93061 19.8499 2.83318C15.6391 6.98018 10.1913 7.76175 5.50417 7.90613C4.0037 7.94612 2.77949 9.12002 2.67659 10.6175C2.30042 15.2023 2.2728 19.809 2.59375 24.3981C3.75276 34.9693 11.138 43.2717 21.5 46.8437Z" stroke="#444444" stroke-width="3" stroke-linecap="round" stroke-linejoin="round"/>
</svg>
