<svg width="24" height="24" viewBox="0 0 24 24" fill="none" xmlns="http://www.w3.org/2000/svg">
<path fill-rule="evenodd" clip-rule="evenodd" d="M12 8.25C14.0711 8.25 15.75 9.92893 15.75 12C15.75 14.0711 14.0711 15.75 12 15.75C9.9289 15.75 8.25 14.0711 8.25 12C8.25 9.92893 9.9289 8.25 12 8.25ZM14.25 12C14.25 10.7574 13.2426 9.75 12 9.75C10.7574 9.75 9.75 10.7574 9.75 12C9.75 13.2426 10.7574 14.25 12 14.25C13.2426 14.25 14.25 13.2426 14.25 12Z" fill="#939393"/>
<path fill-rule="evenodd" clip-rule="evenodd" d="M12 3.25C16.5141 3.25 19.5547 5.9542 21.3194 8.24686L21.3513 8.2882C21.7504 8.80653 22.1179 9.28392 22.3673 9.8484C22.6344 10.4529 22.75 11.1117 22.75 12C22.75 12.8883 22.6344 13.5471 22.3673 14.1516C22.1179 14.7161 21.7504 15.1935 21.3513 15.7118L21.3194 15.7531C19.5547 18.0458 16.5141 20.75 12 20.75C7.4859 20.75 4.4453 18.0458 2.6806 15.7531L2.6488 15.7118C2.2496 15.1935 1.8821 14.7161 1.6327 14.1516C1.3656 13.5471 1.25 12.8883 1.25 12C1.25 11.1117 1.3656 10.4529 1.6327 9.8484C1.8821 9.28391 2.2496 8.80652 2.6488 8.28818L2.6806 8.24686C4.4453 5.9542 7.4859 3.25 12 3.25ZM20.1308 9.1618C18.5014 7.04492 15.8496 4.75 12 4.75C8.1504 4.75 5.4986 7.04492 3.8692 9.1618C3.4306 9.73159 3.1737 10.0721 3.0048 10.4545C2.8468 10.812 2.75 11.2489 2.75 12C2.75 12.7511 2.8468 13.188 3.0048 13.5455C3.1737 13.9279 3.4306 14.2684 3.8692 14.8382C5.4986 16.9551 8.1504 19.25 12 19.25C15.8496 19.25 18.5014 16.9551 20.1308 14.8382C20.5694 14.2684 20.8263 13.9279 20.9952 13.5455C21.1532 13.188 21.25 12.7511 21.25 12C21.25 11.2489 21.1532 10.812 20.9952 10.4545C20.8263 10.0721 20.5694 9.73159 20.1308 9.1618Z" fill="#939393"/>
</svg>
