<svg width="24" height="14" viewBox="0 0 24 14" fill="none" xmlns="http://www.w3.org/2000/svg">
<path d="M3.27489 9.00364C2.42496 8.31901 2 7.97669 2 6.96022C2 5.94374 2.42496 5.60145 3.27489 4.91681C4.97196 3.5498 7.81811 2 12 2C16.1819 2 19.028 3.5498 20.7251 4.91681C21.575 5.60145 22 5.94374 22 6.96022C22 7.97669 21.575 8.31901 20.7251 9.00364C19.028 10.3706 16.1819 11.9204 12 11.9204C7.81811 11.9204 4.97196 10.3706 3.27489 9.00364Z" stroke="#F18506" stroke-width="3"/>
<path d="M15 6.96022C15 7.98754 13.6569 8.8203 12 8.8203C10.3431 8.8203 9 7.98754 9 6.96022C9 5.93289 10.3431 5.10014 12 5.10014C13.6569 5.10014 15 5.93289 15 6.96022Z" stroke="#F18506" stroke-width="3"/>
</svg>
