<?xml version="1.0" encoding="UTF-8"?>
<svg id="katman_1" data-name="katman 1" xmlns="http://www.w3.org/2000/svg" version="1.1" viewBox="0 0 35 37">
  <defs>
    <style>
      .cls-1 {
        fill: none;
      }

      .cls-1, .cls-2 {
        stroke-width: 0px;
      }

      .cls-2 {
        fill: #555;
        fill-rule: evenodd;
      }
    </style>
  </defs>
  <line class="cls-1" x1=".5" y1="1.5" x2="34.5" y2="35.5"/>
  <path class="cls-2" d="M26.5,27.6c0,.9,0,3.5-4,3.5h-9.7c-2.2,0-4.1-1.5-4.1-3.3v-11.7c0-.3,0-.7.5-.9l6.1-6c1.2-1.2,3.4-1.2,4.6,0l6.1,6c.3.3.5.6.5.9v15.1-3.5h0ZM16.2,3.4L.3,19.5c-.5.4-.3,1,0,1.4H.3c.5.4,1.3.4,1.7,0h0c1.2-1.2,3.5-.4,3.5,1.1v7.2c0,3.2,3.1,5.9,6.8,5.9h10.4c3.7,0,6.8-2.6,6.8-5.9v-7.2c0-1.6,2.3-2.3,3.5-1.1h0c.5.5,1.3.5,1.7,0h0c.5-.4.5-1,0-1.4L19.2,3.4c-.8-.8-2.2-.8-3,0Z"/>
</svg>