<?xml version="1.0" encoding="UTF-8"?>
<svg id="katman_1" data-name="katman 1" xmlns="http://www.w3.org/2000/svg" version="1.1" viewBox="0 0 34 34">
  <defs>
    <style>
      .cls-1 {
        stroke: #555;
        stroke-linecap: round;
        stroke-linejoin: round;
        stroke-width: 3px;
      }

      .cls-1, .cls-2 {
        fill: none;
      }

      .cls-2 {
        stroke-width: 0px;
      }
    </style>
  </defs>
  <path class="cls-1" d="M11.1,21.5s2.4,3,5.9,3,5.9-3,5.9-3M3.6,20.9v-3.7c0-1.7,0-2.6.2-3.3.2-.7.5-1.4.9-1.9.5-.7,1.2-1.2,2.5-2.2l3.9-3c2.1-1.6,3.1-2.4,4.3-2.8,1-.3,2.1-.3,3.1,0,1.2.3,2.2,1.1,4.3,2.8l3.9,3c1.3,1,2,1.6,2.5,2.2.4.6.8,1.2.9,1.9.2.8.2,1.6.2,3.3v3.7c0,3.3,0,5-.6,6.3-.6,1.1-1.5,2-2.6,2.6-1.3.6-2.9.6-6.3.6h-7.7c-3.3,0-5,0-6.3-.6-1.1-.6-2-1.5-2.6-2.6-.6-1.3-.6-2.9-.6-6.3Z"/>
  <line class="cls-2" x2="34" y2="34"/>
</svg>