<?xml version="1.0" encoding="UTF-8"?>
<svg id="katman_1" data-name="katman 1" xmlns="http://www.w3.org/2000/svg" version="1.1" viewBox="0 0 37 37">
  <defs>
    <style>
      .cls-1 {
        stroke-width: 0px;
      }

      .cls-1, .cls-2 {
        fill: none;
      }

      .cls-2 {
        stroke: #555;
        stroke-linecap: round;
        stroke-width: 3px;
      }
    </style>
  </defs>
  <line class="cls-1" x1="1.5" y1="1.5" x2="35.5" y2="35.5"/>
  <path class="cls-2" d="M8.8,18.2c5.3-5.2,14-5.2,19.3,0M12.1,21.4c3.6-3.4,9.3-3.4,12.9,0M15.3,24.5c1.8-1.7,4.7-1.7,6.4,0M33.7,18.8v2.3c0,5.9,0,8.9-1.8,10.7-1.8,1.8-4.6,1.8-10.4,1.8h-6.1c-5.7,0-8.6,0-10.4-1.8-1.8-1.8-1.8-4.8-1.8-10.7v-2.3c0-3.5,0-5.2.8-6.7.8-1.4,2.2-2.3,5.1-4.1l3-1.9c3-1.9,4.6-2.8,6.2-2.8s3.2.9,6.2,2.8l3,1.9c2.9,1.8,4.3,2.7,5.1,4.1"/>
</svg>