<?xml version="1.0" encoding="UTF-8"?>
<svg id="katman_1" data-name="katman 1" xmlns="http://www.w3.org/2000/svg" version="1.1" viewBox="0 0 37 35">
  <defs>
    <style>
      .cls-1 {
        fill: none;
      }

      .cls-1, .cls-2 {
        stroke-width: 0px;
      }

      .cls-2 {
        fill: #555;
      }
    </style>
  </defs>
  <line class="cls-1" x1="1.5" y1=".5" x2="35.5" y2="34.5"/>
  <g>
    <path class="cls-2" d="M29.1,13.5v5.5c0,.8.6,1.4,1.4,1.4s1.4-.6,1.4-1.4v-3.3l.7.6c.6.5,1.5.4,1.9-.2.5-.6.4-1.5-.2-1.9l-4-3.2v-7c0-1.2-1-2.1-2.1-2.1h-3.7c-1.2,0-2.1,1-2.1,2.1v.6l-.2-.2-1.7,2.2,8.6,6.9ZM25.1,4.7h2.5v4.1l-2.5-2v-2.1Z"/>
    <path class="cls-2" d="M16.6,6.6c1.1-.9,2.7-.9,3.9,0l.9-1.1.9-1.1h0c-2.1-1.7-5.2-1.7-7.3,0h0s.9,1.1.9,1.1l.9,1.1Z"/>
    <path class="cls-2" d="M15.4,7.6l1.2-.9-1.7-2.2-1.2.9c-.6.5-.7,1.3-.2,1.9.5.6,1.3.7,1.9.2Z"/>
    <path class="cls-2" d="M33.4,30.3h-1.6v-5.3c0-.8-.6-1.4-1.4-1.4s-1.4.6-1.4,1.4v5.3h-4.7v-6.1c0-1,0-1.9,0-2.6-.1-.8-.3-1.5-1-2.2l-1.1,1h.1c0-.1.9-1,.9-1h0c-.6-.6-1.4-.9-2.2-1-.7,0-1.6,0-2.6,0s-1.9,0-2.6,0c-.8.1-1.5.3-2.2,1-.5.5-.5,1.4,0,1.9.5.5,1.4.5,1.9,0,0,0,.1-.1.6-.2.5,0,1.2,0,2.3,0s1.8,0,2.3,0c.5,0,.5.2.6.2,0,0,.1.1.2.6,0,.5,0,1.2,0,2.3v6.1h-6.2v-6.1c0-.8-.6-1.4-1.4-1.4s-1.4.6-1.4,1.4v6.1h-4.7V13.5l2.6-2.1c.6-.5.7-1.3.2-1.9-.5-.6-1.3-.7-1.9-.2l-6.1,4.9c-.6.5-.7,1.3-.2,1.9.5.6,1.3.7,1.9.2l.7-.6v14.6h-1.6c-.8,0-1.4.6-1.4,1.4s.6,1.4,1.4,1.4h29.9c.8,0,1.4-.6,1.4-1.4s-.6-1.4-1.4-1.4Z"/>
    <path class="cls-2" d="M14.1,13c0,2.4,2,4.4,4.4,4.4s4.4-2,4.4-4.4-2-4.4-4.4-4.4-4.4,2-4.4,4.4ZM20.1,13c0,.9-.7,1.6-1.6,1.6s-1.6-.7-1.6-1.6.7-1.6,1.6-1.6,1.6.7,1.6,1.6Z"/>
  </g>
</svg>